<mxfile host="app.diagrams.net" modified="2022-05-15T12:03:34.089Z" agent="5.0 (Windows NT 10.0; Win64; x64) AppleWebKit/537.36 (KHTML, like Gecko) Chrome/101.0.4951.67 Safari/537.36" etag="BzNx6KzfnBN0LLfZs-hx" version="18.0.4" type="github">
  <diagram id="pN3tOv0Hnyo84Ak2nDvD" name="Page-1">
    <mxGraphModel dx="1621" dy="513" grid="1" gridSize="10" guides="1" tooltips="1" connect="1" arrows="1" fold="1" page="1" pageScale="1" pageWidth="583" pageHeight="827" math="0" shadow="0">
      <root>
        <mxCell id="0" />
        <mxCell id="1" parent="0" />
        <mxCell id="QvEs3cgh8W8eg8W6o5l4-6" value="" style="rounded=0;whiteSpace=wrap;html=1;fontSize=18;fillColor=#D6D6D6;strokeColor=#DEDEDE;" parent="1" vertex="1">
          <mxGeometry x="-80" y="40" width="660" height="320" as="geometry" />
        </mxCell>
        <mxCell id="QvEs3cgh8W8eg8W6o5l4-3" value="&lt;span style=&quot;font-size: 18px;&quot;&gt;&lt;br&gt;&lt;/span&gt;" style="rounded=0;whiteSpace=wrap;html=1;" parent="1" vertex="1">
          <mxGeometry x="-80" y="40" width="100" height="320" as="geometry" />
        </mxCell>
        <mxCell id="QvEs3cgh8W8eg8W6o5l4-4" value="&lt;font style=&quot;font-size: 18px;&quot;&gt;Text info&lt;/font&gt;" style="rounded=0;whiteSpace=wrap;html=1;" parent="1" vertex="1">
          <mxGeometry x="60" y="220" width="110" height="70" as="geometry" />
        </mxCell>
        <mxCell id="QvEs3cgh8W8eg8W6o5l4-7" value="&lt;font style=&quot;font-size: 12px;&quot;&gt;Logo&lt;/font&gt;" style="rounded=0;whiteSpace=wrap;html=1;shadow=0;fontSize=18;strokeColor=#303030;fillColor=#FFFFFF;" parent="1" vertex="1">
          <mxGeometry x="-70" y="50" width="80" height="40" as="geometry" />
        </mxCell>
        <mxCell id="QvEs3cgh8W8eg8W6o5l4-8" value="Dasboard" style="rounded=0;whiteSpace=wrap;html=1;shadow=0;fontSize=12;strokeColor=#303030;fillColor=#FFFFFF;" parent="1" vertex="1">
          <mxGeometry x="-70" y="120" width="80" height="20" as="geometry" />
        </mxCell>
        <mxCell id="QvEs3cgh8W8eg8W6o5l4-12" value="Laporan" style="rounded=0;whiteSpace=wrap;html=1;shadow=0;fontSize=12;strokeColor=#303030;fillColor=#FFFFFF;" parent="1" vertex="1">
          <mxGeometry x="-70" y="150" width="80" height="20" as="geometry" />
        </mxCell>
        <mxCell id="amOWyj0sPMwlI2qCfpNF-1" value="&lt;font style=&quot;font-size: 18px;&quot;&gt;Text&amp;nbsp;&lt;/font&gt;" style="rounded=0;whiteSpace=wrap;html=1;" parent="1" vertex="1">
          <mxGeometry x="222" y="100" width="140" height="80" as="geometry" />
        </mxCell>
        <mxCell id="amOWyj0sPMwlI2qCfpNF-2" value="&lt;font style=&quot;font-size: 18px;&quot;&gt;Text info&lt;/font&gt;" style="rounded=0;whiteSpace=wrap;html=1;" parent="1" vertex="1">
          <mxGeometry x="181.5" y="220" width="110" height="70" as="geometry" />
        </mxCell>
        <mxCell id="amOWyj0sPMwlI2qCfpNF-3" value="&lt;font style=&quot;font-size: 18px;&quot;&gt;Text info&lt;/font&gt;" style="rounded=0;whiteSpace=wrap;html=1;" parent="1" vertex="1">
          <mxGeometry x="310" y="220" width="110" height="70" as="geometry" />
        </mxCell>
        <mxCell id="amOWyj0sPMwlI2qCfpNF-4" value="&lt;font style=&quot;font-size: 18px;&quot;&gt;Text info&lt;/font&gt;" style="rounded=0;whiteSpace=wrap;html=1;" parent="1" vertex="1">
          <mxGeometry x="430" y="220" width="110" height="70" as="geometry" />
        </mxCell>
      </root>
    </mxGraphModel>
  </diagram>
</mxfile>
